<?xml version="1.0" encoding="UTF-8"?>
<svg xmlns="http://www.w3.org/2000/svg" xmlns:xlink="http://www.w3.org/1999/xlink" width="30px" height="30px" viewBox="0 0 30 30" version="1.1">
<g id="surface1">
<path style=" stroke:none;fill-rule:nonzero;fill:rgb(45.098039%,81.568627%,95.686275%);fill-opacity:1;" d="M 22.175781 15.632812 L 19.722656 15.632812 C 19.222656 15.632812 18.824219 15.230469 18.824219 14.734375 L 18.824219 3.144531 L 11.175781 3.144531 L 11.175781 14.734375 C 11.175781 15.230469 10.777344 15.632812 10.277344 15.632812 L 7.824219 15.632812 L 15 21.351562 Z M 22.175781 15.632812 "/>
<path style=" stroke:none;fill-rule:nonzero;fill:rgb(23.921569%,40.784314%,53.72549%);fill-opacity:1;" d="M 4.691406 15.4375 L 14.441406 23.207031 C 14.605469 23.339844 14.800781 23.402344 15 23.402344 C 15.207031 23.402344 15.402344 23.335938 15.558594 23.207031 L 25.308594 15.4375 C 25.609375 15.199219 25.726562 14.796875 25.597656 14.4375 C 25.472656 14.078125 25.128906 13.832031 24.75 13.832031 L 20.621094 13.832031 L 20.621094 2.242188 C 20.621094 1.746094 20.21875 1.339844 19.722656 1.339844 L 10.277344 1.339844 C 9.777344 1.339844 9.378906 1.746094 9.378906 2.242188 L 9.378906 13.832031 L 5.25 13.832031 C 4.871094 13.832031 4.527344 14.078125 4.402344 14.4375 C 4.273438 14.796875 4.390625 15.199219 4.691406 15.4375 Z M 10.277344 15.632812 C 10.777344 15.632812 11.175781 15.230469 11.175781 14.734375 L 11.175781 3.144531 L 18.824219 3.144531 L 18.824219 14.734375 C 18.824219 15.230469 19.222656 15.632812 19.722656 15.632812 L 22.175781 15.632812 L 15 21.351562 L 7.824219 15.632812 Z M 29.101562 19.585938 C 28.601562 19.585938 28.199219 19.988281 28.199219 20.484375 L 28.199219 26.855469 L 1.800781 26.855469 L 1.800781 20.484375 C 1.800781 19.988281 1.398438 19.585938 0.898438 19.585938 C 0.402344 19.585938 0 19.988281 0 20.484375 L 0 27.757812 C 0 28.253906 0.402344 28.660156 0.898438 28.660156 L 29.101562 28.660156 C 29.597656 28.660156 30 28.253906 30 27.757812 L 30 20.484375 C 30 19.988281 29.597656 19.585938 29.101562 19.585938 Z M 29.101562 19.585938 "/>
</g>
</svg>
